<svg xmlns="http://www.w3.org/2000/svg" viewBox="0 0 1600 900">
  <defs>
    <linearGradient id="sky" x1="0" x2="0" y1="0" y2="1">
      <stop offset="0" stop-color="#0d130c"/>
      <stop offset="1" stop-color="#0a0c07"/>
    </linearGradient>
    <radialGradient id="glow" cx="0.5" cy="0.5" r="0.5">
      <stop offset="0" stop-color="#e8a83c" stop-opacity="0.35"/>
      <stop offset="1" stop-color="#e8a83c" stop-opacity="0"/>
    </radialGradient>
  </defs>
  <rect width="1600" height="900" fill="url(#sky)" />
  <circle cx="1150" cy="110" r="180" fill="url(#glow)" />
  <g transform="translate(1150,110)">
    <circle r="70" fill="#e8a83c" />
    <circle r="46" fill="#fbe6b0" />
  </g>
  <g transform="translate(0,260)">
    <path d="M0,480 C260,360 480,420 760,480 C1040,540 1300,440 1600,480 L1600,900 L0,900 Z" fill="#26361f" />
    <path d="M0,540 C260,440 520,480 800,540 C1080,600 1340,520 1600,540 L1600,900 L0,900 Z" fill="#1a2716" opacity="0.95" />
    <path d="M0,600 C280,540 560,570 840,600 C1100,630 1360,590 1600,600 L1600,900 L0,900 Z" fill="#111c0e" opacity="0.95" />
  </g>
  <g transform="translate(420,340)">
    <ellipse cx="0" cy="0" rx="22" ry="14" fill="#f3d38a" />
    <path d="M-8,-2 C0,-8 8,-8 16,-2" stroke="#0a0c07" stroke-width="2" fill="none" opacity="0.8" />
    <path d="M-8,2 C0,8 8,8 16,2" stroke="#0a0c07" stroke-width="2" fill="none" opacity="0.8" />
  </g>
  <g transform="translate(960,400) scale(1.05)">
    <ellipse cx="0" cy="0" rx="22" ry="14" fill="#f3d38a" />
    <path d="M-9,-3 C0,-9 9,-9 17,-3" stroke="#0a0c07" stroke-width="2" fill="none" opacity="0.8" />
  </g>
  <g transform="translate(260,560) scale(1.18)">
    <rect x="0" y="0" width="160" height="160" rx="20" fill="#ffd08a" stroke="#b06f10" stroke-width="3" />
    <ellipse cx="80" cy="22" rx="48" ry="12" fill="#e8a83c"/>
    <text x="24" y="110" font-family="Merriweather, serif" font-size="20" fill="#5b4229">Doğal Bal</text>
  </g>
  <text x="360" y="230" font-family="Merriweather, serif" font-size="58" font-weight="900" fill="#f3f5ee">Doğadan Almanya</text>
  <text x="360" y="278" font-family="Inter, sans-serif" font-size="22" fill="#b7c2ac">Doğal bal, kuruyemiş ve lokum — Almanya'ya</text>
</svg>
